<svg width="406" height="331" viewBox="0 0 406 331" fill="none" xmlns="http://www.w3.org/2000/svg">
<path d="M388.94 194.78C390.247 188.271 392.391 181.958 395.32 176C403.32 159.62 409.07 145.29 403.98 127C391.51 82.33 340.79 77.11 315.77 43.42C277.09 -8.63997 182.05 -13.16 136.65 31.83C122.73 45.62 116.21 65.1 102.14 78.74C81.4099 98.85 50.6299 101.44 29.3399 121.49C-5.37006 154.2 -8.74006 209.63 22.0699 246.41C54.6099 285.25 100.54 278.88 145.15 270.62C167.1 266.56 189.92 262.16 212.29 265.28C260 272 316.61 298.21 362.85 272.12C387.48 258.22 388.11 236.54 387.54 211.25C387.401 205.725 387.87 200.202 388.94 194.78V194.78Z" fill="#2DB97C"/>
<path opacity="0.6" d="M388.94 194.78C390.247 188.271 392.391 181.958 395.32 176C403.32 159.62 409.07 145.29 403.98 127C391.51 82.33 340.79 77.11 315.77 43.42C277.09 -8.63997 182.05 -13.16 136.65 31.83C122.73 45.62 116.21 65.1 102.14 78.74C81.4099 98.85 50.6299 101.44 29.3399 121.49C-5.37006 154.2 -8.74006 209.63 22.0699 246.41C54.6099 285.25 100.54 278.88 145.15 270.62C167.1 266.56 189.92 262.16 212.29 265.28C260 272 316.61 298.21 362.85 272.12C387.48 258.22 388.11 236.54 387.54 211.25C387.401 205.725 387.87 200.202 388.94 194.78V194.78Z" fill="white"/>
<path d="M194.5 331C300.263 331 386 312.868 386 290.5C386 268.132 300.263 250 194.5 250C88.7375 250 3 268.132 3 290.5C3 312.868 88.7375 331 194.5 331Z" fill="#2DB97C"/>
<path opacity="0.3" d="M194.5 331C300.263 331 386 312.868 386 290.5C386 268.132 300.263 250 194.5 250C88.7375 250 3 268.132 3 290.5C3 312.868 88.7375 331 194.5 331Z" fill="white"/>
<path d="M360.61 64.2599C360.61 64.2599 350.83 71.7399 349.48 77.4999C348.13 83.2599 349.87 89.3899 351.02 93.0399C352.17 96.6899 352.36 114.34 341.62 122.2C330.88 130.06 326.08 137.93 327.23 147.72C328.38 157.51 342.96 168.25 355.05 170.72C367.14 173.19 384.21 167.65 390.92 153.26C397.63 138.87 388.62 123 383.63 114C378.64 105 379.03 96.5399 384.63 96.1599C390.23 95.7799 393.07 97.1599 393.27 89.2499C393.47 81.3399 391.54 69.1099 381.37 62.9699C371.2 56.8299 360.61 64.2599 360.61 64.2599Z" fill="#2E353A" stroke="#2E353A" stroke-linecap="round" stroke-linejoin="round"/>
<path d="M336.53 160.76C337.53 161.43 346.53 165.1 353.19 154.76C359.85 144.42 350.78 134.89 352.53 125.76" stroke="white" stroke-width="0.5" stroke-miterlimit="10"/>
<path d="M371.55 76.16C371.55 76.16 368.43 66.08 375.19 69.35C382.44 72.85 388.19 89.35 385.69 93.1" stroke="white" stroke-width="0.5" stroke-miterlimit="10"/>
<path d="M369.69 74.85C369.69 74.85 365.94 67.6 368.44 64.35C370.94 61.1 376.69 64.85 379.69 67.1" stroke="white" stroke-width="0.5" stroke-miterlimit="10"/>
<path d="M378.19 94.6C378.19 94.6 379.19 99.1 376.19 108.1C373.19 117.1 367.69 127.35 373.19 136.85C378.69 146.35 382.94 152.85 376.69 162.35" stroke="white" stroke-width="0.5" stroke-miterlimit="10"/>
<path d="M378.19 99.85C378.408 105.711 377.989 111.579 376.94 117.35C375.19 127.35 380.69 133.85 386.44 140.1C392.19 146.35 390.69 151.6 388.69 157.35" stroke="white" stroke-width="0.5" stroke-miterlimit="10"/>
<path d="M369.44 76.35C369.44 76.35 357.69 77.35 354.19 75.85C350.69 74.35 351.44 73.1 351.44 73.1" stroke="white" stroke-width="0.5" stroke-miterlimit="10"/>
<path d="M371 116.29C371 116.29 372.53 131.83 374.49 140.82C376.45 149.81 379.57 161.16 378.79 164.29C378.01 167.42 360.79 194.01 360.79 194.01L355.71 190.49L366.27 158.81L357.38 129.11C357.38 129.11 365.52 117.18 371 116.29Z" fill="white" stroke="#2E353A" stroke-linecap="round" stroke-linejoin="round"/>
<path d="M369.63 113.76C367.13 110.88 361.76 103.4 361.76 103.4L353.32 93.3999L341.62 77.2899C340.08 75.1799 334.9 75.94 319.94 76.14C304.98 76.34 259.57 67.7 259.57 67.7L258.04 77.7C258.04 77.7 299.6 86.7 310.15 87.7C320.7 88.7 330.49 90 330.49 90C329.049 92.8706 327.767 95.8184 326.65 98.83C325.5 102.28 312.07 120.7 312.07 120.7C312.07 120.7 311.74 120.9 311.17 121.28C311.02 124.62 311.34 131.71 316.33 135.45C320.19 138.34 325.84 139.56 329.92 140.07C329.99 139.84 330.05 139.64 330.1 139.5C330.68 137.96 334.9 135.66 337.2 135.5C339.5 135.34 346.6 135.69 350.83 135.31C355.06 134.93 357.35 129.17 357.35 129.17C357.35 129.17 366.67 120.07 370.96 116.35C370.694 115.406 370.242 114.526 369.63 113.76V113.76Z" fill="white" stroke="#2E353A" stroke-linecap="round" stroke-linejoin="round"/>
<path d="M335.8 92.32L330.49 89.97L334.35 96.11" stroke="#2E353A" stroke-width="0.75" stroke-linecap="round" stroke-linejoin="round"/>
<path d="M322.41 127.26C326.407 129.739 331.135 130.767 335.8 130.17" stroke="#2E353A" stroke-width="0.75" stroke-linecap="round" stroke-linejoin="round"/>
<path d="M318 120.27C318 120.27 318.87 123.77 324.41 126.1" stroke="#2E353A" stroke-width="0.75" stroke-linecap="round" stroke-linejoin="round"/>
<path d="M366.24 158.81C366.24 158.81 369.87 157.25 372.78 161.33" stroke="#2E353A" stroke-width="0.75" stroke-linecap="round" stroke-linejoin="round"/>
<path d="M367.25 131.63L357.35 129.11L366.08 136" stroke="#2E353A" stroke-width="0.75" stroke-linecap="round" stroke-linejoin="round"/>
<path d="M340.17 80.9999C340.17 80.9999 335.22 89.7299 329.4 89.4399C321.49 89.0399 299.11 82.4399 299.11 80.1199C299.11 77.7999 305.23 76.9199 305.23 76.9199" stroke="#2E353A" stroke-width="0.75" stroke-linecap="round" stroke-linejoin="round"/>
<path d="M357.35 88.2399C357.35 88.2399 353.35 87.2399 350.44 89.0099C347.53 90.7799 339.89 107.43 339.89 107.43C339.89 107.43 340.46 108.2 342.77 108.2C345.08 108.2 345.65 111.27 345.65 114.14C345.65 117.01 345.45 118.36 346.41 118.14C347.37 117.92 353.13 115.84 354.28 116.61C355.43 117.38 352.74 121.21 353.28 121.61C353.82 122.01 358.65 117.19 360.19 112.01C361.73 106.83 363.26 99.1599 362.87 96.0899C362.48 93.0199 360 88.9999 357.35 88.2399Z" fill="#2DB97C" stroke="#2E353A" stroke-linecap="round" stroke-linejoin="round"/>
<path d="M360.61 104.17C358.497 106.527 356.257 108.767 353.9 110.88C349.48 114.88 345.84 117.79 346.03 115.88C346.22 113.97 350.63 103.6 351.78 97.88C352.93 92.16 355.05 88.28 357.35 88.28C359.65 88.28 364.64 100 360.61 104.17Z" fill="white" stroke="#2E353A" stroke-linecap="round" stroke-linejoin="round"/>
<path d="M358.31 79.4199C358.464 79.887 358.714 80.3164 359.045 80.6801C359.376 81.0437 359.78 81.3333 360.23 81.5299C361.57 81.9099 371.55 76.1599 371.55 76.1599C371.55 76.1599 378.65 91.3099 377.49 93.6099C376.33 95.9099 372.89 98.7999 369.05 101.48C365.21 104.16 358.12 106.28 355.43 104.74C352.74 103.2 354.66 87.4799 354.66 87.4799C354.66 87.4799 352.55 84.9799 354.85 80.9499C357.15 76.9199 358.31 79.4199 358.31 79.4199Z" fill="white" stroke="#2E353A" stroke-linecap="round" stroke-linejoin="round"/>
<path d="M374.38 95.0699C374.38 95.0699 374.55 93.8799 372.33 93.8799C370.11 93.8799 366.21 97.9599 366.21 97.9599" stroke="#2E353A" stroke-width="0.75" stroke-linecap="round" stroke-linejoin="round"/>
<path d="M364.68 98.3L363.49 97.11" stroke="#2E353A" stroke-width="0.75" stroke-linecap="round" stroke-linejoin="round"/>
<path d="M363 100.52C363 100.52 359.94 100.01 359.43 96.09" stroke="#2E353A" stroke-width="0.75" stroke-linecap="round" stroke-linejoin="round"/>
<path d="M370.08 88.8899C370.08 88.8899 369.32 85.1599 366.08 84.4399" stroke="#2E353A" stroke-width="0.75" stroke-linecap="round" stroke-linejoin="round"/>
<path d="M366.23 90.89C365.45 91.5 364.59 91.7 364.3 91.33C364.01 90.96 364.4 90.17 365.17 89.56C365.94 88.95 366.81 88.75 367.1 89.12C367.39 89.49 367 90.28 366.23 90.89Z" fill="#2E353A"/>
<path d="M371.05 97.19C370.41 97.69 369.7 97.86 369.46 97.55C369.22 97.24 369.54 96.55 370.18 96.08C370.82 95.61 371.53 95.42 371.77 95.72C372.01 96.02 371.69 96.68 371.05 97.19Z" fill="#2E353A"/>
<path d="M352.38 260.47L362.19 274.1C362.19 274.1 362.19 276.6 358.69 276.6C355.19 276.6 353.19 276.6 351.19 274.1C349.19 271.6 349.19 270.1 347.19 269.1C345.19 268.1 343.19 268.1 344.19 262.6C345.19 257.1 352.38 260.47 352.38 260.47Z" fill="white" stroke="#2E353A" stroke-linecap="round" stroke-linejoin="round"/>
<path d="M362.15 274.41C360.596 275.156 358.853 275.414 357.15 275.15C353.61 274.51 351.46 270.97 350.15 269.45C348.84 267.93 347.24 267.94 345.73 266.67C345.011 266.056 344.385 265.342 343.87 264.55C343.66 268.11 345.39 268.23 347.11 269.1C349.11 270.1 349.11 271.6 351.11 274.1C353.11 276.6 355.11 276.6 358.61 276.6C361.42 276.6 362 275.08 362.15 274.41Z" fill="white" stroke="#2E353A" stroke-linecap="round" stroke-linejoin="round"/>
<path d="M351.82 258.74C349.82 252.74 346.97 216.82 345.49 205.45C342.49 182.33 329.15 152.32 329.15 152.32L329.92 140.04C325.84 139.53 320.19 138.31 316.33 135.42C311.33 131.68 311.02 124.59 311.17 121.25C308.64 122.88 301.17 127.79 294.8 132.95C286.94 139.28 281.56 161.73 280.03 168.82C278.5 175.91 276.77 196.82 276.77 196.82C276.77 196.82 262.95 202.19 257.39 209.82C251.83 217.45 234.94 234.76 234.94 234.76L236.48 240.52C236.48 240.52 241.66 236.88 246.07 233.42C250.48 229.96 284.83 210.78 287.13 209.42C289.43 208.06 292.13 205.42 295.19 197.72C296.31 194.91 297.89 190.31 299.45 185.6L304.78 169L309.91 164.63C314.97 178.31 326.73 204.68 328.4 208.45C330.4 212.97 331.92 233.07 337.45 245.64C342.98 258.21 344.45 264.24 344.45 264.24C344.45 264.24 353.83 264.77 351.82 258.74Z" fill="#2E353A" stroke="#2E353A" stroke-linecap="round" stroke-linejoin="round"/>
<path d="M329.59 142.41L331.5 153.56" stroke="white" stroke-width="0.5" stroke-miterlimit="10"/>
<path d="M59.1801 56.2899L30.3001 301.59C30.261 301.943 30.3217 302.3 30.4754 302.621C30.6291 302.941 30.8696 303.212 31.1696 303.403C31.4696 303.593 31.817 303.696 32.1724 303.699C32.5278 303.702 32.8769 303.605 33.1801 303.42L51.7401 292C52.8417 291.317 54.1654 291.089 55.4321 291.363C56.6988 291.637 57.8095 292.393 58.5301 293.47L81.8501 328.14L91.5801 182.3L59.1801 56.2899Z" fill="#2DB97C" stroke="#2E353A" stroke-linecap="round" stroke-linejoin="round"/>
<path d="M59 62.4599L32.9 295.46C32.8436 295.963 32.9352 296.471 33.1636 296.923C33.3919 297.375 33.7471 297.75 34.1856 298.002C34.6241 298.255 35.1268 298.374 35.632 298.345C36.1373 298.317 36.6231 298.141 37.03 297.84L50.6 287.84C51.3057 287.318 52.1105 286.946 52.9652 286.745C53.8199 286.545 54.7064 286.522 55.5705 286.676C56.4346 286.831 57.258 287.16 57.9904 287.644C58.7228 288.128 59.3488 288.756 59.83 289.49L75.71 313.73C75.8821 313.999 76.1394 314.203 76.4409 314.309C76.7424 314.415 77.0707 314.417 77.3734 314.315C77.6761 314.212 77.9358 314.011 78.111 313.744C78.2862 313.477 78.3668 313.158 78.34 312.84L59.8 62.4699C59.7807 62.3788 59.731 62.297 59.659 62.2379C59.587 62.1788 59.4971 62.146 59.404 62.1448C59.3109 62.1436 59.2201 62.1742 59.1467 62.2315C59.0733 62.2888 59.0215 62.3693 59 62.4599V62.4599Z" fill="#2DB97C" stroke="#2E353A" stroke-linecap="round" stroke-linejoin="round"/>
<path opacity="0.6" d="M59.36 59.08L32.88 295.44C32.8236 295.943 32.9152 296.451 33.1436 296.903C33.3719 297.355 33.7271 297.73 34.1656 297.982C34.6041 298.235 35.1068 298.354 35.612 298.326C36.1173 298.297 36.6031 298.121 37.01 297.82L50.58 287.82C51.2857 287.298 52.0905 286.926 52.9452 286.726C53.7999 286.525 54.6864 286.502 55.5505 286.656C56.4145 286.811 57.238 287.14 57.9704 287.624C58.7028 288.108 59.3288 288.736 59.81 289.47L75.69 313.71C75.862 313.979 76.1193 314.183 76.4208 314.289C76.7224 314.395 77.0507 314.397 77.3534 314.295C77.6561 314.192 77.9158 313.991 78.091 313.724C78.2662 313.457 78.3468 313.138 78.32 312.82L59.55 59.08C59.5434 59.06 59.5307 59.0426 59.5136 59.0302C59.4965 59.0179 59.476 59.0112 59.455 59.0112C59.4339 59.0112 59.4134 59.0179 59.3963 59.0302C59.3793 59.0426 59.3665 59.06 59.36 59.08V59.08Z" fill="black"/>
<path d="M54.5299 286.54C55.5805 286.558 56.6107 286.833 57.5309 287.34C58.4511 287.847 59.2334 288.572 59.8099 289.45L75.6899 313.69C75.862 313.959 76.1193 314.163 76.4208 314.269C76.7223 314.375 77.0507 314.377 77.3534 314.275C77.6561 314.172 77.9158 313.971 78.091 313.704C78.2662 313.437 78.3468 313.118 78.3199 312.8L76.0499 282.16L54.1899 286.44C54.3061 286.463 54.4199 286.496 54.5299 286.54V286.54Z" fill="#2DB97C" stroke="#2E353A" stroke-linecap="round" stroke-linejoin="round"/>
<path opacity="0.3" d="M54.5299 286.54C55.5805 286.558 56.6107 286.833 57.5309 287.34C58.4511 287.847 59.2334 288.572 59.8099 289.45L75.6899 313.69C75.862 313.959 76.1193 314.163 76.4208 314.269C76.7223 314.375 77.0507 314.377 77.3534 314.275C77.6561 314.172 77.9158 313.971 78.091 313.704C78.2662 313.437 78.3468 313.118 78.3199 312.8L76.0499 282.16L54.1899 286.44C54.3061 286.463 54.4199 286.496 54.5299 286.54V286.54Z" fill="black"/>
<path d="M59.77 56.1399L81.84 328.14L339.19 279.1L278.71 66.9699L59.77 56.1399Z" fill="#2E353A" stroke="#2E353A" stroke-linecap="round" stroke-linejoin="round"/>
<path d="M71.7002 62.01L86.8602 313.76L328.86 269.76L277.85 74.17L71.7002 62.01Z" fill="#2DB97C" stroke="#2E353A" stroke-linecap="round" stroke-linejoin="round"/>
<path d="M86.4902 185.9L98.0002 305.23L317.88 265.25L297.45 175.56L86.4902 185.9Z" fill="white" stroke="#2E353A" stroke-linecap="round" stroke-linejoin="round"/>
<path d="M128.93 299.29L125.28 260.96" stroke="#2E353A" stroke-linecap="round" stroke-linejoin="round"/>
<path d="M162.58 293.36L159.06 261.41" stroke="#2E353A" stroke-linecap="round" stroke-linejoin="round"/>
<path d="M195.57 286.97L191.46 261.41" stroke="#2E353A" stroke-linecap="round" stroke-linejoin="round"/>
<path d="M229.56 281.14L224.67 250.67" stroke="#2E353A" stroke-linecap="round" stroke-linejoin="round"/>
<path d="M259.5 275.74L255.33 246" stroke="#2E353A" stroke-linecap="round" stroke-linejoin="round"/>
<path d="M288.21 270.43L282 234.67" stroke="#2E353A" stroke-linecap="round" stroke-linejoin="round"/>
<path d="M355.68 190.49C355.68 190.49 352.62 193.57 352.42 195.17C352.22 196.77 353.82 201.59 353.82 201.59L358.64 202.39L360.76 194.01L355.68 190.49Z" fill="white" stroke="#2E353A" stroke-linecap="round" stroke-linejoin="round"/>
<g style="mix-blend-mode:multiply" opacity="0.49">
<path d="M72.9199 131.56C72.9199 131.56 77.9999 204.67 82.6699 231.33C87.3399 257.99 95.9999 297.89 95.9999 297.89C95.9999 297.89 246 274.67 320 243.33L314 214.67L72.9199 131.56Z" fill="#2DB97C"/>
</g>
<path d="M66.1401 59.27L276.81 70.62C276.81 70.62 297.32 132.07 317.73 166.77C338.14 201.47 371.8 199.21 371.8 199.21C371.8 199.21 294.6 241.42 234.47 263.89C171.89 287.26 117.62 291.46 117.62 291.46C117.62 291.46 68.1901 223.94 66.1401 59.27Z" fill="#2DB97C" stroke="#2E353A" stroke-linecap="round" stroke-linejoin="round"/>
<path d="M90.2604 48.33C86.3504 48.33 83.5204 51.8 82.6304 57.24L86.6304 57.46C87.2504 54.32 88.4804 52.33 90.2504 52.33C92.3104 52.33 94.6004 55.6399 94.6004 60.3999C94.6004 65.1599 92.3104 68.4799 90.2504 68.4799C89.7199 68.4799 89.2112 68.6907 88.8362 69.0657C88.4611 69.4408 88.2504 69.9495 88.2504 70.4799C88.2504 71.0104 88.4611 71.5191 88.8362 71.8942C89.2112 72.2692 89.7199 72.4799 90.2504 72.4799C94.9304 72.4799 98.6004 67.1699 98.6004 60.3999C98.6004 53.6299 94.9404 48.33 90.2604 48.33Z" fill="white" stroke="#2E353A" stroke-miterlimit="10"/>
<path d="M96.0003 63.6399C95.8087 64.3451 95.5613 65.034 95.2603 65.6999" stroke="#2E353A" stroke-width="0.75" stroke-linecap="round" stroke-linejoin="round"/>
<path d="M84.6104 55.44C84.6104 55.44 86.1103 50.02 90.5403 50.32C94.0203 50.56 96.8904 55.73 96.4104 61.26" stroke="#2E353A" stroke-width="0.75" stroke-linecap="round" stroke-linejoin="round"/>
<path d="M125 50.08C121.09 50.08 118.26 53.55 117.37 58.99L121.37 59.21C121.99 56.07 123.22 54.08 124.99 54.08C127.05 54.08 129.34 57.3899 129.34 62.1499C129.34 66.9099 127.05 70.2299 124.99 70.2299C124.46 70.2299 123.951 70.4407 123.576 70.8157C123.201 71.1908 122.99 71.6995 122.99 72.2299C122.99 72.7604 123.201 73.2691 123.576 73.6442C123.951 74.0192 124.46 74.2299 124.99 74.2299C129.67 74.2299 133.34 68.9199 133.34 62.1499C133.34 55.3799 129.69 50.08 125 50.08Z" fill="white" stroke="#2E353A" stroke-miterlimit="10"/>
<path d="M130.75 65.3899C130.559 66.0951 130.311 66.784 130.01 67.4499" stroke="#2E353A" stroke-width="0.75" stroke-linecap="round" stroke-linejoin="round"/>
<path d="M119.36 57.19C119.36 57.19 120.86 51.77 125.29 52.07C128.77 52.31 131.64 57.48 131.16 63.01" stroke="#2E353A" stroke-width="0.75" stroke-linecap="round" stroke-linejoin="round"/>
<path d="M159.76 51.83C155.85 51.83 153.02 55.3 152.13 60.74L156.13 60.96C156.75 57.82 157.98 55.83 159.75 55.83C161.81 55.83 164.1 59.1399 164.1 63.8999C164.1 68.6599 161.81 71.9799 159.75 71.9799C159.22 71.9799 158.711 72.1907 158.336 72.5657C157.961 72.9408 157.75 73.4495 157.75 73.9799C157.75 74.5104 157.961 75.0191 158.336 75.3942C158.711 75.7692 159.22 75.9799 159.75 75.9799C164.43 75.9799 168.1 70.6699 168.1 63.8999C168.1 57.1299 164.44 51.83 159.76 51.83Z" fill="white" stroke="#2E353A" stroke-miterlimit="10"/>
<path d="M165.5 67.1399C165.309 67.8451 165.061 68.534 164.76 69.1999" stroke="#2E353A" stroke-width="0.75" stroke-linecap="round" stroke-linejoin="round"/>
<path d="M154.11 58.94C154.11 58.94 155.61 53.52 160.04 53.82C163.52 54.06 166.39 59.23 165.91 64.76" stroke="#2E353A" stroke-width="0.75" stroke-linecap="round" stroke-linejoin="round"/>
<path d="M194.51 53.58C190.6 53.58 187.77 57.05 186.88 62.49L190.88 62.71C191.5 59.57 192.73 57.58 194.5 57.58C196.56 57.58 198.85 60.8899 198.85 65.6499C198.85 70.4099 196.56 73.7299 194.5 73.7299C193.969 73.7299 193.461 73.9407 193.086 74.3157C192.711 74.6908 192.5 75.1995 192.5 75.7299C192.5 76.2604 192.711 76.7691 193.086 77.1442C193.461 77.5192 193.969 77.7299 194.5 77.7299C199.18 77.7299 202.85 72.4199 202.85 65.6499C202.85 58.8799 199.19 53.58 194.51 53.58Z" fill="white" stroke="#2E353A" stroke-miterlimit="10"/>
<path d="M200.25 68.8899C200.059 69.5951 199.811 70.284 199.51 70.9499" stroke="#2E353A" stroke-width="0.75" stroke-linecap="round" stroke-linejoin="round"/>
<path d="M188.86 60.69C188.86 60.69 190.36 55.27 194.79 55.57C198.27 55.81 201.14 60.98 200.66 66.51" stroke="#2E353A" stroke-width="0.75" stroke-linecap="round" stroke-linejoin="round"/>
<path d="M229.89 55.13C225.98 55.13 223.15 58.6 222.27 64.05L226.27 64.27C226.9 61.13 228.13 59.13 229.89 59.13C231.95 59.13 234.25 62.45 234.25 67.21C234.25 71.97 231.95 75.28 229.89 75.28C229.36 75.28 228.851 75.4907 228.476 75.8658C228.101 76.2409 227.89 76.7496 227.89 77.28C227.89 77.8104 228.101 78.3191 228.476 78.6942C228.851 79.0693 229.36 79.28 229.89 79.28C234.58 79.28 238.25 73.98 238.25 67.21C238.25 60.44 234.58 55.13 229.89 55.13Z" fill="white" stroke="#2E353A" stroke-miterlimit="10"/>
<path d="M235.63 70.45C235.44 71.1524 235.193 71.8381 234.89 72.5" stroke="#2E353A" stroke-width="0.75" stroke-linecap="round" stroke-linejoin="round"/>
<path d="M224.24 62.2499C224.24 62.2499 225.75 56.8199 230.17 57.1199C233.66 57.3599 236.52 62.5399 236.05 68.0699" stroke="#2E353A" stroke-width="0.75" stroke-linecap="round" stroke-linejoin="round"/>
<path d="M263.88 57C259.97 57 257.14 60.47 256.26 65.91L260.26 66.14C260.89 63 262.12 61 263.88 61C265.94 61 268.24 64.32 268.24 69.07C268.24 73.82 265.94 77.15 263.88 77.15C263.35 77.15 262.841 77.3607 262.466 77.7358C262.091 78.1109 261.88 78.6196 261.88 79.15C261.88 79.6804 262.091 80.1891 262.466 80.5642C262.841 80.9393 263.35 81.15 263.88 81.15C268.57 81.15 272.24 75.84 272.24 69.07C272.24 62.3 268.57 57 263.88 57Z" fill="white" stroke="#2E353A" stroke-miterlimit="10"/>
<path d="M269.62 72.26C269.432 72.9663 269.184 73.6554 268.88 74.32" stroke="#2E353A" stroke-width="0.75" stroke-linecap="round" stroke-linejoin="round"/>
<path d="M258.23 64.07C258.23 64.07 259.74 58.64 264.16 58.94C267.65 59.18 270.51 64.35 270.04 69.88" stroke="#2E353A" stroke-width="0.75" stroke-linecap="round" stroke-linejoin="round"/>
<path d="M360.76 194C360.76 194 362.76 196.74 362.76 197.91C362.76 199.08 360.02 201.04 360.02 203.77C360.02 206.5 356.5 205.77 356.11 203.77C355.72 201.77 356.89 199.08 356.89 199.08C356.89 199.08 355.26 198.08 354.89 194.56C354.52 191.04 357.69 192.04 357.69 192.04L360.76 194Z" fill="white" stroke="#2E353A" stroke-linecap="round" stroke-linejoin="round"/>
<path d="M310.76 166.93C296.27 142.29 281.05 103.38 275.64 89.0599L87.3699 81.4299C87.2499 220.58 129.37 278.07 129.37 278.07C129.37 278.07 177.32 274.36 232.62 253.7C285.76 233.85 349.14 200.53 349.14 200.53C349.14 200.53 328.79 197.6 310.76 166.93Z" fill="white" stroke="#2E353A" stroke-linecap="round" stroke-linejoin="round"/>
<path d="M275.64 89.0599L87.3701 81.4299C87.3701 95.1199 87.7601 108 88.4801 120.13L287.3 118.27C282.15 106 278 95.2499 275.64 89.0599Z" fill="#2E353A" stroke="#2E353A" stroke-linecap="round" stroke-linejoin="round"/>
<path d="M278.97 130.54L287.87 130.23" stroke="#2E353A" stroke-width="3" stroke-linecap="round" stroke-linejoin="round"/>
<path d="M252.81 131.43L272.3 130.76" stroke="#2E353A" stroke-width="3" stroke-linecap="round" stroke-linejoin="round"/>
<path d="M221.14 132.5L246.19 131.65" stroke="#2E353A" stroke-width="3" stroke-linecap="round" stroke-linejoin="round"/>
<path d="M188.92 133.59L215.61 132.69" stroke="#2E353A" stroke-width="3" stroke-linecap="round" stroke-linejoin="round"/>
<path d="M157.77 134.65L182.24 133.82" stroke="#2E353A" stroke-width="3" stroke-linecap="round" stroke-linejoin="round"/>
<path d="M124.95 135.77L149.44 134.93" stroke="#2E353A" stroke-width="3" stroke-linecap="round" stroke-linejoin="round"/>
<path d="M96.0601 136.75L118.85 135.97" stroke="#2E353A" stroke-width="3" stroke-linecap="round" stroke-linejoin="round"/>
<path d="M92.3501 158.2L299.48 145.58" stroke="#2E353A" stroke-linecap="round" stroke-linejoin="round"/>
<path d="M125.08 156.42C125.08 156.42 128.48 211.5 164.79 272.64" stroke="#2E353A" stroke-linecap="round" stroke-linejoin="round"/>
<path d="M158.5 154.21C158.5 154.21 162.33 217.21 202.14 263.34" stroke="#2E353A" stroke-linecap="round" stroke-linejoin="round"/>
<path d="M188.76 152.35C188.76 152.35 190.76 210.35 235.51 252.03" stroke="#2E353A" stroke-linecap="round" stroke-linejoin="round"/>
<path d="M220.13 151C220.13 151 225.07 215.48 268.38 238.19" stroke="#2E353A" stroke-linecap="round" stroke-linejoin="round"/>
<path d="M253 148.41C253 148.41 256.48 197.18 300.78 223.89" stroke="#2E353A" stroke-linecap="round" stroke-linejoin="round"/>
<path d="M278.88 146.83C278.88 146.83 290.8 196.83 324.15 213.02" stroke="#2E353A" stroke-linecap="round" stroke-linejoin="round"/>
<path d="M96.8901 186.61L308.45 163.34" stroke="#2E353A" stroke-linecap="round" stroke-linejoin="round"/>
<path d="M102.41 211.5C102.41 211.5 147.58 209.73 318.29 178.27" stroke="#2E353A" stroke-linecap="round" stroke-linejoin="round"/>
<path d="M110.38 237.85C110.38 237.85 154.38 242.85 326.76 187.96" stroke="#2E353A" stroke-linecap="round" stroke-linejoin="round"/>
<path d="M119.9 260.84C119.9 260.84 156.58 272.99 336.76 195.84" stroke="#2E353A" stroke-linecap="round" stroke-linejoin="round"/>
<path d="M168.69 108.65L100.87 107.74C100.321 107.732 99.7928 107.525 99.3846 107.157C98.9763 106.789 98.7153 106.286 98.65 105.74L98.0701 100.26C98.036 99.9446 98.0694 99.6256 98.1679 99.3241C98.2664 99.0226 98.4278 98.7454 98.6415 98.5109C98.8551 98.2765 99.1161 98.0901 99.4072 97.9641C99.6983 97.8381 100.013 97.7753 100.33 97.78L167.33 98.94C167.825 98.9486 168.304 99.1197 168.692 99.4268C169.081 99.734 169.357 100.16 169.48 100.64L170.84 105.85C170.925 106.179 170.934 106.524 170.866 106.857C170.798 107.191 170.655 107.504 170.448 107.774C170.241 108.044 169.975 108.263 169.67 108.415C169.365 108.567 169.03 108.647 168.69 108.65V108.65Z" fill="white"/>
</svg>
